:SAMPLES-PER-SECOND 24
:FULLY-SPECIFIED
:DEGREES
29
root  0.238273 40.5234 4.10883 -179.155 4.13098 -179.606
RightUpLeg  4.80335 -1.49175 -1.60569
RightLeg  1.71134 -7.13215 1.1215
RightFoot  -2.19213 -0.295298 3.42773
RightToes  -1.46215e-006 3.27826e-006 1.63871e-007
Spine  -2.95647 0.857505 1.33392
Spine1  5.60037 0.823416 -0.365007
HEad  2.24816 -2.92879 -0.239615
LeftShoulder1  0.256951 1.20425 -3.08439
LeftArm  -29.1876 -0.704147 1.20761
LeftForeArm  -4.40173 -3.08039 -7.222
LeftHand  0.0874314 6.66878 10.0545
RightShoulder  0.125353 -2.14996 1.63118
RightArm  -39.3437 4.67488 -5.13529
RightForeArm  -2.30242 -2.59447 5.95477
RightHand  -0.454551 -1.38139 -13.0667
LeftUpLeg  5.10298 -0.908833 0.325357
LeftLeg  -0.729038 15.6536 0.209194
LeftFoot  -1.25493 0.204752 -2.22334
LeftToes  1.24762e-006 1.46925e-008 1.29056e-009
30
root  0.240463 40.5248 4.12027 -179.166 4.14832 -179.626
RightUpLeg  4.79553 -1.48935 -1.61501
RightLeg  1.70635 -7.11502 1.10193
RightFoot  -2.16579 -0.294219 3.41099
RightToes  -1.46215e-006 3.27826e-006 1.63871e-007
Spine  -2.98685 0.847086 1.29136
Spine1  5.69765 0.809141 -0.324837
HEad  2.34396 -2.89392 -0.18648
LeftShoulder1  0.244641 1.29774 -2.98852
LeftArm  -29.24 -0.71655 1.0083
LeftForeArm  -4.42136 -3.05743 -7.20531
LeftHand  0.0827528 6.56444 10.3971
RightShoulder  0.124277 -2.1949 1.6356
RightArm  -39.2721 4.73363 -5.08194
RightForeArm  -2.52538 -2.48519 6.02142
RightHand  -0.423285 -1.71058 -13.211
LeftUpLeg  5.12838 -0.92846 0.305212
LeftLeg  -0.794591 15.677 0.193448
LeftFoot  -1.20782 0.204954 -2.23082
LeftToes  1.24762e-006 1.46925e-008 1.29056e-009
31
root  0.242425 40.5253 4.13381 -179.183 4.20724 -179.654
RightUpLeg  4.74602 -1.50571 -1.64545
RightLeg  1.77997 -7.0328 1.08646
RightFoot  -2.16873 -0.294561 3.41629
RightToes  -1.46215e-006 3.27826e-006 1.63871e-007
Spine  -2.93381 0.857703 1.2249
Spine1  5.6846 0.814399 -0.26745
HEad  2.42383 -2.89003 -0.12585
LeftShoulder1  0.241339 1.33162 -3.01252
LeftArm  -29.302 -0.695646 0.984678
LeftForeArm  -4.26989 -3.01066 -7.16687
LeftHand  0.0653022 6.36712 10.3479
RightShoulder  0.123687 -2.20281 1.63959
RightArm  -39.1853 4.74579 -5.07263
RightForeArm  -2.72339 -2.40589 6.07861
RightHand  -0.422963 -1.71308 -13.2086
LeftUpLeg  5.14618 -0.935161 0.278869
LeftLeg  -0.831499 15.7448 0.17247
LeftFoot  -1.17637 0.201359 -2.18111
LeftToes  1.24762e-006 1.46925e-008 1.29056e-009
32
root  0.234499 40.5259 4.15336 -179.205 4.27414 -179.675
RightUpLeg  4.59861 -1.62115 -1.75704
RightLeg  2.03798 -6.85725 1.16115
RightFoot  -2.21333 -0.296181 3.44143
RightToes  -1.46215e-006 3.27826e-006 1.63871e-007
Spine  -2.8348 0.87271 1.20301
Spine1  5.65844 0.830452 -0.263971
HEad  2.4061 -2.9515 -0.0955534
LeftShoulder1  0.251257 1.28045 -3.22771
LeftArm  -29.3254 -0.64044 1.20656
LeftForeArm  -4.26203 -3.03245 -7.15509
LeftHand  0.071665 6.44814 10.2943
RightShoulder  0.123773 -2.2113 1.63375
RightArm  -39.3133 4.77581 -5.02221
RightForeArm  -2.57715 -2.48474 6.01958
RightHand  -0.452054 -1.39637 -13.0405
LeftUpLeg  5.12599 -0.95304 0.234309
LeftLeg  -0.798269 15.8334 0.184593
LeftFoot  -1.15922 0.19889 -2.151
LeftToes  1.24762e-006 1.46925e-008 1.29056e-009
33
root  0.217239 40.5279 4.19124 -179.18 4.24634 -179.683
RightUpLeg  4.39566 -1.72254 -1.85956
RightLeg  2.26168 -6.76485 1.24333
RightFoot  -2.21094 -0.298555 3.47827
RightToes  -1.46215e-006 3.27826e-006 1.63871e-007
Spine  -2.70439 0.872652 1.15377
Spine1  5.61021 0.819003 -0.210206
HEad  2.37957 -3.11415 -0.170319
LeftShoulder1  0.259494 1.24262 -3.43528
LeftArm  -29.3608 -0.737192 1.34986
LeftForeArm  -4.36742 -2.94201 -7.14244
LeftHand  0.0905265 6.66543 10.3233
RightShoulder  0.125709 -2.21988 1.54867
RightArm  -39.41 4.68205 -4.92247
RightForeArm  -2.56905 -2.52096 5.96949
RightHand  -0.457078 -1.3431 -12.993
LeftUpLeg  4.97213 -0.996322 0.193892
LeftLeg  -0.67935 15.8382 0.234567
LeftFoot  -1.12565 0.199682 -2.17394
LeftToes  1.24762e-006 1.46925e-008 1.29056e-009
